<svg enable-background="new 0 0 512 512" height="512" viewBox="0 0 512 512" width="512" xmlns="http://www.w3.org/2000/svg"><path d="m409.434 82.96c30.04 25.7 60.08 51.42 89.971 77.29-29.49 26.511-60.15 51.851-90.101 77.9.07-17.43-.11-34.851.061-52.271-19 .03-38-.109-56.99.061-9.13.02-17.72 4.58-23.87 11.16-54.55 56.779-109.21 113.46-163.74 170.26-6.06 6.29-14.51 10.4-23.34 10.32-34.689.22-69.39-.17-104.069.229-12.891-.38-23.95-12.06-23.94-24.89-.64-13.91 11.62-25.9 25.28-26.311 27.55-.26 55.13.15 82.68-.189 10.05-.061 18.9-5.92 25.24-13.32 53.72-55.939 107.5-111.83 161.25-167.75 6.04-6.59 14.72-10.65 23.68-10.85 25.939-.11 51.89.1 77.82-.101-.053-17.178-.192-34.357.068-51.538z"/><path d="m32.764 134.48c37.5-.311 75.131.03 112.69-.08 9.68-.43 19.54 3.2 26.12 10.43 15.609 16.061 31.05 32.311 46.57 48.46 6.359 6.5 9.85 15.96 7.64 24.98-2.41 11.04-12.98 19.819-24.36 19.71-7.729.35-14.85-3.59-20.54-8.48-10.64-11.34-20.84-23.12-31.649-34.31-6.19-6.3-15.09-9.41-23.83-9.29-27.99-.12-55.98.08-83.971-.09-11.14-.34-23.02-5.601-27.13-16.66-6.33-14.08 3.35-31.96 18.46-34.67z"/><path d="m261.554 278.17c9.67-7.729 24.83-6.609 33.36 2.32 11.689 11.98 23.13 24.21 34.83 36.18 6.08 6.41 14.84 10.07 23.67 9.98 18.66-.07 37.319.08 55.99-.09-.19-17.11-.07-34.221-.04-51.33 30.27 25.64 60.31 51.55 90.3 77.52-29.95 25.95-60.061 51.71-90.221 77.41-.38-17.5.04-35.01-.189-52.51-25.97-.24-51.94-.021-77.91-.11-8.95-.08-17.57-4.35-23.56-10.91-16.73-17.27-33.73-34.27-50.29-51.689-9.59-10.47-7.46-28.581 4.06-36.771z"/></svg>